<svg id="visual" viewBox="0 0 900 600" width="900" height="600" xmlns="http://www.w3.org/2000/svg" xmlns:xlink="http://www.w3.org/1999/xlink" version="1.1"><rect x="0" y="0" width="900" height="600" fill="#001220"></rect><defs><linearGradient id="grad1_0" x1="33.3%" y1="0%" x2="100%" y2="100%"><stop offset="20%" stop-color="#001220" stop-opacity="1"></stop><stop offset="80%" stop-color="#001220" stop-opacity="1"></stop></linearGradient></defs><defs><linearGradient id="grad2_0" x1="0%" y1="0%" x2="66.7%" y2="100%"><stop offset="20%" stop-color="#001220" stop-opacity="1"></stop><stop offset="80%" stop-color="#001220" stop-opacity="1"></stop></linearGradient></defs><g transform="translate(900, 0)"><path d="M0 297.5C-22.3 251 -44.6 204.5 -80.4 194C-116.1 183.6 -165.3 209.2 -201.5 201.5C-237.7 193.9 -261 153 -274.8 113.8C-288.6 74.7 -293 37.4 -297.5 0L0 0Z" fill="#733cfa"></path></g><g transform="translate(0, 600)"><path d="M0 -297.5C38.5 -294.3 77.1 -291.2 113.8 -274.8C150.6 -258.5 185.6 -228.9 192.3 -192.3C199.1 -155.7 177.5 -112.1 190.3 -78.8C203.1 -45.6 250.3 -22.8 297.5 0L0 0Z" fill="#733cfa"></path></g></svg>